# xmcd CD database file
#
# Track frame offsets:
#	150
#	12839
#	19970
#	33837
#	53124
#	62853
#	76292
#	87890
#	105256
#	117124
#	129659
#
# Disc length: 1974 seconds
#
# Revision: 0
# Processed by: cddbd v1.5.2PL0 Copyright (c) Steve Scherf et al.
# Submitted via: CDex 1.50beta10
#
DISCID=7f07b40b
DTITLE=Jason Prover and The Sneak Thievery Orchestra - Jason Prover and The Sneak Thievery Orchestra
DYEAR=2012
DGENRE=Jazz
TTITLE0=At The Devil's Ball
TTITLE1=Meet Me Tonight In Dreamland
TTITLE2=Come And Take It
TTITLE3=Blues My Naughty Sweetie
TTITLE4=Super Vet March
TTITLE5=Song Of India
TTITLE6=First Class Stomp
TTITLE7=By The Light Of The Silvery Moon
TTITLE8=Poor Andrew
TTITLE9=Sidewalks Of New York
TTITLE10=Royal Garden Blues
EXTD=YEAR: 2012
EXTT0=
EXTT1=
EXTT2=
EXTT3=
EXTT4=
EXTT5=
EXTT6=
EXTT7=
EXTT8=
EXTT9=
EXTT10=
PLAYORDER=
